<svg width="18" height="16" viewBox="0 0 18 16" fill="none" xmlns="http://www.w3.org/2000/svg">
<path fill-rule="evenodd" clip-rule="evenodd" d="M16.1187 1.94703C15.2268 0.94913 14.041 0.399994 12.7794 0.399994C11.5178 0.399994 10.459 0.94913 9.56667 1.94703L8.99997 2.8522L8.43333 1.94703C7.5413 0.94913 6.48219 0.399994 5.22076 0.399994C3.95938 0.399994 2.7731 0.94913 1.88115 1.94703C0.0396161 4.00732 0.0396161 7.3595 1.88115 9.41899L8.47989 15.7609C8.58778 15.8821 8.72209 15.9562 8.86242 15.9848C8.90948 15.9952 8.95681 16 9.00423 16C9.1909 16 9.37789 15.9203 9.52005 15.7609L16.1188 9.41899C17.9604 7.3595 17.9604 4.00732 16.1187 1.94703Z" fill="white"/>
</svg>
